<?xml version="1.0" encoding="utf-8"?>
<!-- Generator: Adobe Illustrator 17.1.0, SVG Export Plug-In . SVG Version: 6.00 Build 0)  -->
<!DOCTYPE svg PUBLIC "-//W3C//DTD SVG 1.1//EN" "http://www.w3.org/Graphics/SVG/1.1/DTD/svg11.dtd">
<svg version="1.1" id="Layer_1" xmlns="http://www.w3.org/2000/svg" xmlns:xlink="http://www.w3.org/1999/xlink" x="0px" y="0px"
	 viewBox="0 0 720 72" enable-background="new 0 0 720 72" xml:space="preserve">
<g>
	<path fill="#8C614A" d="M16.037,22.388H8.365L6.937,26.42H2.289L9.765,6.568h5.124l7.392,19.852h-4.816L16.037,22.388z
		 M9.821,18.356h4.816l-2.38-6.86L9.821,18.356z"/>
	<path fill="#8C614A" d="M30.317,26.42V6.568h4.48V26.42H30.317z"/>
	<path fill="#8C614A" d="M50.673,19.028h-1.568v7.392h-4.424V6.568h7.868c3.92,0,6.44,2.688,6.44,6.216
		c0,2.688-1.484,4.732-3.92,5.6l4.032,8.036h-4.872L50.673,19.028z M51.709,15.22c1.82,0,2.8-1.008,2.8-2.408
		c0-1.484-0.98-2.408-2.8-2.408h-2.604v4.816H51.709z"/>
	<path fill="#8C614A" d="M75.285,6.568c3.92,0,6.188,2.268,6.188,5.32c0,2.044-1.288,3.724-2.912,4.256
		c1.792,0.42,3.528,2.072,3.528,4.648c0,3.248-2.464,5.628-6.216,5.628h-8.008V6.568H75.285z M74.584,14.521
		c1.54,0,2.548-0.812,2.548-2.156c0-1.288-0.868-2.128-2.604-2.128h-2.352v4.284H74.584z M74.948,22.809
		c1.708,0,2.744-0.896,2.744-2.324c0-1.372-1.008-2.324-2.744-2.324h-2.772v4.648H74.948z"/>
	<path fill="#8C614A" d="M103.312,26.42l-8.176-13.048V26.42H90.74V6.568h5.376l7.448,12.068V6.568h4.424V26.42H103.312z"/>
	<path fill="#8C614A" d="M125.292,6.568c3.92,0,6.188,2.268,6.188,5.32c0,2.044-1.288,3.724-2.912,4.256
		c1.792,0.42,3.528,2.072,3.528,4.648c0,3.248-2.464,5.628-6.216,5.628h-8.008V6.568H125.292z M124.592,14.521
		c1.54,0,2.548-0.812,2.548-2.156c0-1.288-0.868-2.128-2.604-2.128h-2.352v4.284H124.592z M124.956,22.809
		c1.708,0,2.744-0.896,2.744-2.324c0-1.372-1.008-2.324-2.744-2.324h-2.772v4.648H124.956z"/>
	<path fill="#8C614A" d="M167.992,26.42l-0.28-2.016c-0.868,1.26-2.744,2.436-5.572,2.436c-5.516,0-10.052-4.06-10.052-10.332
		c0-6.244,4.732-10.36,10.332-10.36c5.684,0,8.316,3.36,9.184,6.132l-4.256,1.484c-0.308-1.232-1.624-3.472-4.928-3.472
		c-2.688,0-5.852,1.792-5.852,6.216c0,4.144,2.744,6.3,5.964,6.3c3.276,0,4.648-2.128,4.9-3.248h-5.964v-3.752h10.108V26.42H167.992
		z"/>
	<path fill="#8C614A" d="M186.891,19.028h-1.568v7.392h-4.424V6.568h7.868c3.92,0,6.44,2.688,6.44,6.216
		c0,2.688-1.484,4.732-3.92,5.6l4.032,8.036h-4.872L186.891,19.028z M187.927,15.22c1.82,0,2.8-1.008,2.8-2.408
		c0-1.484-0.98-2.408-2.8-2.408h-2.604v4.816H187.927z"/>
	<path fill="#8C614A" d="M215.927,22.388h-7.672l-1.428,4.032h-4.648l7.476-19.852h5.124l7.392,19.852h-4.816L215.927,22.388z
		 M209.711,18.356h4.816l-2.38-6.86L209.711,18.356z"/>
	<path fill="#8C614A" d="M234.631,19.28v7.14h-4.424V6.568h7.476c4.032,0,6.804,2.66,6.804,6.356c0,3.752-2.772,6.356-6.804,6.356
		H234.631z M237.235,15.473c1.68,0,2.828-0.98,2.828-2.52c0-1.596-1.148-2.548-2.828-2.548h-2.576v5.068H237.235z"/>
	<path fill="#8C614A" d="M265.179,26.42v-7.896h-7.924v7.896h-4.424V6.568h4.424v7.784h7.924V6.568h4.452V26.42H265.179z"/>
	<path fill="#8C614A" d="M279.515,26.42V6.568h4.48V26.42H279.515z"/>
	<path fill="#8C614A" d="M292.73,16.537c0-6.188,4.704-10.388,10.248-10.388c5.964,0,8.596,3.836,9.24,6.692l-4.172,1.316
		c-0.308-1.372-1.568-3.696-5.068-3.696c-2.66,0-5.656,1.904-5.656,6.076c0,3.724,2.744,5.88,5.712,5.88
		c3.444,0,4.816-2.296,5.208-3.724l4.228,1.204c-0.644,2.744-3.276,6.944-9.436,6.944C297.323,26.84,292.73,22.725,292.73,16.537z"
		/>
	<path fill="#8C614A" d="M333.582,26.42V6.568h7.196c5.964,0,9.968,3.808,9.968,9.94c0,6.132-4.004,9.912-9.996,9.912H333.582z
		 M340.582,22.249c3.052,0,5.544-1.764,5.544-5.74c0-3.976-2.492-5.768-5.544-5.768h-2.576v11.508H340.582z"/>
	<path fill="#8C614A" d="M359.51,26.42V6.568h12.572v4.172h-8.147v3.78h7.392v3.892h-7.392v3.808h8.176v4.2H359.51z"/>
	<path fill="#8C614A" d="M391.121,12.561c-0.14-0.924-0.896-2.492-3.304-2.492c-1.651,0-2.716,1.036-2.716,2.128
		c0,0.952,0.588,1.652,1.96,1.904l2.66,0.504c3.78,0.7,5.74,3.136,5.74,5.964c0,3.108-2.604,6.272-7.336,6.272
		c-5.488,0-7.841-3.556-8.12-6.356l4.06-0.98c0.168,1.82,1.4,3.416,4.116,3.416c1.736,0,2.8-0.84,2.8-2.072
		c0-1.008-0.812-1.736-2.128-1.988l-2.716-0.504c-3.36-0.644-5.404-2.884-5.404-5.824c0-3.752,3.304-6.384,7.112-6.384
		c4.956,0,6.832,2.968,7.252,5.292L391.121,12.561z"/>
	<path fill="#8C614A" d="M404.085,26.42V6.568h4.48V26.42H404.085z"/>
	<path fill="#8C614A" d="M433.205,26.42l-0.28-2.016c-0.867,1.26-2.743,2.436-5.571,2.436c-5.517,0-10.053-4.06-10.053-10.332
		c0-6.244,4.732-10.36,10.332-10.36c5.685,0,8.316,3.36,9.185,6.132l-4.256,1.484c-0.309-1.232-1.624-3.472-4.929-3.472
		c-2.688,0-5.852,1.792-5.852,6.216c0,4.144,2.744,6.3,5.964,6.3c3.276,0,4.648-2.128,4.9-3.248h-5.964v-3.752h10.107V26.42H433.205
		z"/>
	<path fill="#8C614A" d="M458.686,26.42l-8.177-13.048V26.42h-4.396V6.568h5.376l7.448,12.068V6.568h4.424V26.42H458.686z"/>
	<path fill="#8C614A" d="M485.732,26.42V6.568h12.797v4.2h-8.372v4.2h7.363V19h-7.336v7.42H485.732z"/>
	<path fill="#8C614A" d="M507.236,26.42V6.568h12.572v4.172h-8.148v3.78h7.393v3.892h-7.393v3.808h8.176v4.2H507.236z"/>
	<path fill="#8C614A" d="M529.16,26.42V6.568h4.424v15.624h8.568v4.228H529.16z"/>
	<path fill="#8C614A" d="M550.607,26.42V6.568h4.425v15.624h8.567v4.228H550.607z"/>
	<path fill="#8C614A" d="M580.764,6.148c5.572,0,10.305,4.06,10.305,10.36c0,6.272-4.732,10.332-10.305,10.332
		c-5.6,0-10.332-4.06-10.332-10.332C570.432,10.208,575.164,6.148,580.764,6.148z M580.764,22.473c2.744,0,5.712-1.848,5.712-5.992
		s-2.968-6.02-5.712-6.02c-2.771,0-5.739,1.876-5.739,6.02S577.992,22.473,580.764,22.473z"/>
	<path fill="#8C614A" d="M621.252,6.568h4.536l-5.404,19.852h-4.564l-4.228-13.16l-4.256,13.16h-4.648l-5.403-19.852h4.704
		l3.275,12.712l4.116-12.712h4.536l4.116,12.74L621.252,6.568z"/>
	<path fill="#8C614A" d="M643.372,12.561c-0.14-0.924-0.896-2.492-3.304-2.492c-1.652,0-2.716,1.036-2.716,2.128
		c0,0.952,0.588,1.652,1.96,1.904l2.659,0.504c3.78,0.7,5.74,3.136,5.74,5.964c0,3.108-2.604,6.272-7.336,6.272
		c-5.488,0-7.84-3.556-8.12-6.356l4.061-0.98c0.168,1.82,1.399,3.416,4.115,3.416c1.736,0,2.801-0.84,2.801-2.072
		c0-1.008-0.812-1.736-2.128-1.988l-2.717-0.504c-3.359-0.644-5.403-2.884-5.403-5.824c0-3.752,3.304-6.384,7.111-6.384
		c4.956,0,6.832,2.968,7.252,5.292L643.372,12.561z"/>
	<path fill="#8C614A" d="M668.684,26.42v-7.896h-7.924v7.896h-4.425V6.568h4.425v7.784h7.924V6.568h4.452V26.42H668.684z"/>
	<path fill="#8C614A" d="M683.02,26.42V6.568h4.479V26.42H683.02z"/>
	<path fill="#8C614A" d="M701.808,19.28v7.14h-4.425V6.568h7.477c4.032,0,6.804,2.66,6.804,6.356c0,3.752-2.771,6.356-6.804,6.356
		H701.808z M704.411,15.473c1.68,0,2.828-0.98,2.828-2.52c0-1.596-1.148-2.548-2.828-2.548h-2.576v5.068H704.411z"/>
</g>
<g>
	<g>
		<path fill="#8C614A" d="M282.122,51.794c0,0.06-0.019,0.113-0.057,0.162c-0.037,0.05-0.078,0.074-0.123,0.074
			c-0.37,0.035-0.673,0.154-0.908,0.357c-0.234,0.204-0.478,0.592-0.728,1.165l-3.824,8.617c-0.025,0.08-0.096,0.12-0.21,0.12
			c-0.091,0-0.16-0.04-0.21-0.12l-2.147-4.477l-2.466,4.477c-0.05,0.08-0.12,0.12-0.21,0.12c-0.109,0-0.183-0.04-0.217-0.12
			l-3.758-8.617c-0.235-0.538-0.482-0.913-0.742-1.127c-0.261-0.214-0.623-0.346-1.088-0.396c-0.04,0-0.077-0.021-0.112-0.062
			c-0.035-0.042-0.053-0.09-0.053-0.145c0-0.137,0.04-0.206,0.12-0.206c0.335,0,0.686,0.016,1.051,0.045
			c0.34,0.03,0.66,0.045,0.961,0.045c0.305,0,0.665-0.015,1.081-0.045c0.435-0.029,0.819-0.045,1.155-0.045
			c0.079,0,0.119,0.069,0.119,0.206c0,0.138-0.024,0.207-0.074,0.207c-0.335,0.024-0.6,0.11-0.792,0.256s-0.288,0.337-0.288,0.573
			c0,0.12,0.039,0.271,0.12,0.452l3.064,7.029l1.802-3.347l-1.645-3.441c-0.295-0.618-0.537-1.017-0.728-1.195
			c-0.189-0.178-0.478-0.287-0.862-0.327c-0.035,0-0.068-0.021-0.102-0.062c-0.032-0.042-0.049-0.09-0.049-0.145
			c0-0.137,0.035-0.206,0.105-0.206c0.335,0,0.643,0.016,0.923,0.045c0.27,0.03,0.557,0.045,0.862,0.045
			c0.3,0,0.617-0.015,0.952-0.045c0.345-0.029,0.685-0.045,1.02-0.045c0.08,0,0.12,0.069,0.12,0.206
			c0,0.138-0.025,0.207-0.075,0.207c-0.67,0.045-1.005,0.236-1.005,0.573c0,0.151,0.078,0.385,0.232,0.702l1.087,2.205l1.081-2.019
			c0.15-0.286,0.226-0.527,0.226-0.724c0-0.462-0.335-0.708-1.006-0.738c-0.06,0-0.09-0.069-0.09-0.207
			c0-0.049,0.016-0.096,0.045-0.14c0.03-0.044,0.061-0.066,0.091-0.066c0.239,0,0.534,0.016,0.885,0.045
			c0.335,0.03,0.609,0.045,0.825,0.045c0.154,0,0.382-0.012,0.682-0.037c0.381-0.035,0.698-0.053,0.953-0.053
			c0.06,0,0.09,0.06,0.09,0.177c0,0.157-0.055,0.236-0.165,0.236c-0.39,0.04-0.704,0.148-0.941,0.324s-0.533,0.575-0.889,1.198
			l-1.439,2.666l1.948,3.972l2.883-6.697c0.1-0.246,0.149-0.473,0.149-0.679c0-0.493-0.335-0.754-1.005-0.784
			c-0.06,0-0.09-0.069-0.09-0.207c0-0.137,0.045-0.206,0.135-0.206c0.245,0,0.535,0.016,0.87,0.045
			c0.31,0.03,0.569,0.045,0.779,0.045c0.221,0,0.476-0.015,0.765-0.045c0.3-0.029,0.57-0.045,0.81-0.045
			C282.087,51.617,282.122,51.677,282.122,51.794z"/>
		<path fill="#8C614A" d="M286.914,57.79c0,0.14-0.09,0.21-0.27,0.21h-4.11c-0.03,0.27-0.045,0.55-0.045,0.84
			c0,0.806,0.191,1.424,0.573,1.856c0.383,0.433,0.927,0.648,1.632,0.648c0.354,0,0.712-0.095,1.072-0.285
			c0.36-0.189,0.65-0.432,0.87-0.728l0.037-0.015c0.045,0,0.089,0.027,0.132,0.083c0.042,0.055,0.063,0.119,0.063,0.194
			c0,0.105-0.16,0.324-0.479,0.656c-0.32,0.333-0.668,0.587-1.043,0.762s-0.768,0.263-1.178,0.263c-0.899,0-1.657-0.33-2.272-0.99
			s-0.922-1.47-0.922-2.431c0-0.979,0.301-1.81,0.903-2.489c0.603-0.681,1.366-1.021,2.291-1.021c0.775,0,1.427,0.254,1.954,0.762
			C286.65,56.613,286.914,57.175,286.914,57.79z M285.549,57.13c0-0.375-0.128-0.687-0.386-0.934
			c-0.258-0.248-0.589-0.371-0.994-0.371c-0.385,0-0.719,0.161-1.001,0.483s-0.474,0.746-0.574,1.271l2.086-0.061
			c0.314-0.005,0.538-0.034,0.671-0.09C285.482,57.375,285.549,57.275,285.549,57.13z"/>
		<path fill="#8C614A" d="M303.572,55.795c0,0.125-0.04,0.192-0.12,0.202c-0.41,0.061-0.691,0.168-0.844,0.323
			c-0.152,0.154-0.334,0.47-0.544,0.944l-2.152,4.905c-0.045,0.08-0.11,0.12-0.195,0.12c-0.08,0-0.135-0.04-0.165-0.12l-1.534-3.931
			l-1.758,3.931c-0.05,0.08-0.115,0.12-0.195,0.12c-0.09,0-0.152-0.04-0.188-0.12l-2.018-4.905
			c-0.175-0.433-0.364-0.743-0.569-0.932s-0.48-0.3-0.825-0.336c-0.08-0.01-0.12-0.078-0.12-0.206c0-0.138,0.039-0.206,0.117-0.206
			c0.199,0,0.444,0.015,0.736,0.045c0.325,0.03,0.609,0.045,0.853,0.045c0.238,0,0.518-0.015,0.839-0.045
			c0.295-0.03,0.544-0.045,0.749-0.045c0.08,0,0.12,0.068,0.12,0.206c0,0.128-0.04,0.196-0.12,0.206
			c-0.25,0.031-0.424,0.084-0.521,0.159c-0.099,0.075-0.147,0.192-0.147,0.353c0,0.159,0.068,0.426,0.204,0.797l1.216,2.956
			l1.299-2.94l-0.049-0.236c-0.025-0.056-0.055-0.134-0.09-0.234c-0.125-0.337-0.232-0.558-0.322-0.66
			c-0.09-0.104-0.253-0.168-0.488-0.193c-0.079-0.01-0.119-0.078-0.119-0.206c0-0.138,0.04-0.206,0.119-0.206
			c0.181,0,0.398,0.015,0.653,0.045c0.271,0.03,0.508,0.045,0.711,0.045c0.237,0,0.516-0.015,0.835-0.045
			c0.303-0.03,0.558-0.045,0.763-0.045c0.08,0,0.12,0.07,0.12,0.21c0,0.125-0.04,0.192-0.12,0.202
			c-0.523,0.071-0.785,0.327-0.785,0.769c0,0.202,0.026,0.375,0.08,0.517l1.088,2.892l1.189-2.785
			c0.146-0.32,0.219-0.588,0.219-0.801c0-0.335-0.226-0.532-0.677-0.591c-0.085-0.01-0.127-0.077-0.127-0.202
			c0-0.14,0.04-0.21,0.12-0.21c0.215,0,0.453,0.015,0.715,0.045c0.256,0.03,0.484,0.045,0.688,0.045
			c0.109,0,0.273-0.013,0.492-0.037c0.297-0.035,0.545-0.053,0.743-0.053C303.53,55.585,303.572,55.655,303.572,55.795z"/>
		<path fill="#8C614A" d="M309.303,62.215c-0.278,0-0.521-0.068-0.728-0.206s-0.347-0.324-0.421-0.559
			c-0.535,0.55-1.235,0.825-2.101,0.825c-0.449,0-0.817-0.14-1.103-0.417c-0.284-0.277-0.427-0.623-0.427-1.038
			c0-1.025,1.215-1.855,3.645-2.49l0.045-1.17v-0.038c0-0.359-0.089-0.646-0.266-0.858c-0.178-0.213-0.414-0.318-0.709-0.318
			s-0.545,0.071-0.75,0.214c-0.205,0.142-0.311,0.321-0.315,0.536c-0.005,0.319-0.089,0.569-0.251,0.75
			c-0.162,0.18-0.379,0.27-0.648,0.27c-0.16,0-0.29-0.047-0.391-0.143c-0.1-0.095-0.149-0.223-0.149-0.382
			c0-0.386,0.35-0.789,1.05-1.212c0.7-0.422,1.35-0.634,1.95-0.634c0.54,0,0.978,0.16,1.312,0.48c0.335,0.319,0.502,0.75,0.502,1.29
			v0.09l-0.112,3.39v0.053c0,0.525,0.17,0.787,0.51,0.787c0.165,0,0.357-0.1,0.578-0.3l0.052-0.015c0.04,0,0.078,0.026,0.113,0.078
			c0.034,0.053,0.052,0.109,0.052,0.169c0,0.146-0.151,0.323-0.453,0.533C309.985,62.11,309.657,62.215,309.303,62.215z
			 M308.154,58.832c-1.455,0.331-2.183,0.878-2.183,1.64c0,0.712,0.273,1.068,0.822,1.068c0.264,0,0.524-0.066,0.78-0.199
			c0.257-0.133,0.43-0.297,0.52-0.493L308.154,58.832z"/>
		<path fill="#8C614A" d="M319.524,61.84c0,0.14-0.04,0.21-0.12,0.21c-0.2,0-0.445-0.015-0.734-0.045
			c-0.32-0.03-0.602-0.045-0.846-0.045c-0.25,0-0.536,0.015-0.86,0.045c-0.294,0.03-0.54,0.045-0.739,0.045
			c-0.08,0-0.12-0.07-0.12-0.21c0-0.125,0.04-0.192,0.12-0.202c0.345-0.04,0.571-0.138,0.679-0.293
			c0.107-0.154,0.161-0.479,0.161-0.975v-2.505c0-0.561-0.11-0.971-0.33-1.23s-0.56-0.39-1.02-0.39c-0.29,0-0.547,0.055-0.77,0.165
			c-0.222,0.109-0.461,0.305-0.716,0.585v3.375c0,0.495,0.054,0.82,0.161,0.975c0.107,0.155,0.334,0.253,0.679,0.293
			c0.08,0.01,0.12,0.077,0.12,0.202c0,0.14-0.04,0.21-0.12,0.21c-0.205,0-0.455-0.015-0.75-0.045
			c-0.325-0.03-0.61-0.045-0.854-0.045c-0.24,0-0.521,0.015-0.84,0.045c-0.296,0.03-0.546,0.045-0.75,0.045
			c-0.08,0-0.12-0.07-0.12-0.21c0-0.125,0.04-0.192,0.12-0.202c0.43-0.055,0.707-0.158,0.832-0.311s0.188-0.471,0.188-0.955v-2.771
			c0-0.399-0.052-0.661-0.153-0.786c-0.103-0.125-0.332-0.207-0.687-0.247c-0.08,0-0.12-0.066-0.12-0.199
			c0-0.122,0.04-0.184,0.12-0.184c0.495-0.125,0.907-0.266,1.237-0.424c0.33-0.157,0.537-0.286,0.622-0.386
			c0.051-0.06,0.105-0.09,0.165-0.09c0.141,0,0.21,0.04,0.21,0.12l-0.06,0.944c0.719-0.67,1.388-1.005,2.007-1.005
			c0.679,0,1.209,0.195,1.591,0.585c0.382,0.391,0.572,0.915,0.572,1.575v2.865c0,0.49,0.062,0.81,0.184,0.96
			c0.123,0.149,0.396,0.252,0.821,0.308C319.484,61.647,319.524,61.715,319.524,61.84z"/>
		<path fill="#8C614A" d="M325.539,56.08c0,0.27-0.064,0.405-0.194,0.405l-2.235-0.061v3.601c0,0.939,0.335,1.409,1.005,1.409
			c0.415,0,0.792-0.097,1.133-0.292c0.04,0,0.076,0.026,0.108,0.079c0.032,0.052,0.049,0.108,0.049,0.168
			c0,0.125-0.186,0.294-0.558,0.507c-0.372,0.212-0.79,0.318-1.254,0.318c-0.568,0-1.022-0.174-1.362-0.521
			c-0.339-0.347-0.509-0.806-0.509-1.376V60.25l0.03-3.646c0-0.14-0.061-0.21-0.181-0.21h-0.569c-0.11,0-0.165-0.063-0.165-0.191
			c0-0.098,0.045-0.172,0.135-0.221c0.692-0.411,1.296-0.991,1.809-1.739c0.055-0.08,0.125-0.121,0.21-0.121
			c0.14,0,0.209,0.04,0.209,0.12l-0.06,1.433h2.205C325.475,55.675,325.539,55.81,325.539,56.08z"/>
		<path fill="#8C614A" d="M338.469,55.791c0,0.128-0.04,0.196-0.12,0.206c-0.34,0.036-0.602,0.135-0.784,0.299
			c-0.183,0.163-0.384,0.486-0.604,0.969l-3.54,7.65c-0.395,0.82-0.854,1.229-1.38,1.229c-0.255,0-0.459-0.068-0.611-0.206
			s-0.229-0.313-0.229-0.528c0-0.226,0.068-0.409,0.205-0.552s0.32-0.214,0.549-0.214c0.108,0,0.231,0.038,0.371,0.113
			c0.09,0.045,0.154,0.067,0.195,0.067c0.166,0,0.361-0.28,0.586-0.84l0.938-2.025l-1.749-4.695
			c-0.185-0.457-0.371-0.773-0.559-0.946c-0.188-0.174-0.441-0.28-0.762-0.321c-0.079-0.01-0.12-0.078-0.12-0.206
			c0-0.138,0.038-0.206,0.114-0.206c0.194,0,0.431,0.015,0.71,0.045c0.312,0.03,0.587,0.045,0.824,0.045
			c0.232,0,0.521-0.015,0.866-0.045c0.317-0.03,0.579-0.045,0.784-0.045c0.079,0,0.119,0.068,0.119,0.206
			c0,0.128-0.04,0.196-0.119,0.206c-0.522,0.065-0.784,0.217-0.784,0.453c0,0.166,0.069,0.438,0.206,0.814l1.209,3.096l1.432-3.096
			c0.124-0.285,0.186-0.52,0.186-0.705c0-0.314-0.241-0.502-0.726-0.562c-0.08-0.01-0.119-0.077-0.119-0.202
			c0-0.14,0.039-0.21,0.119-0.21c0.21,0,0.444,0.015,0.703,0.045c0.252,0.03,0.481,0.045,0.688,0.045
			c0.103,0,0.271-0.013,0.503-0.037c0.319-0.035,0.577-0.053,0.773-0.053C338.427,55.585,338.469,55.653,338.469,55.791z"/>
		<path fill="#8C614A" d="M346.448,61.559c0,0.107-0.04,0.166-0.12,0.177c-0.909,0.099-1.532,0.271-1.867,0.519
			c-0.07,0.054-0.14,0.081-0.21,0.081c-0.1,0-0.15-0.04-0.15-0.12l0.061-0.945c-0.74,0.671-1.41,1.006-2.01,1.006
			c-0.686,0-1.219-0.194-1.602-0.582c-0.383-0.389-0.574-0.915-0.574-1.581v-2.809c0-0.445-0.057-0.74-0.172-0.886
			s-0.343-0.218-0.683-0.218c-0.065,0-0.138,0.002-0.218,0.007c-0.075,0-0.112-0.063-0.112-0.191c0-0.157,0.04-0.235,0.12-0.235
			c0.578,0,1.336-0.113,2.272-0.338c0.09,0,0.135,0.062,0.135,0.188v4.125c0,0.565,0.107,0.977,0.323,1.233
			c0.216,0.258,0.555,0.387,1.016,0.387c0.296,0,0.557-0.055,0.782-0.165s0.466-0.306,0.722-0.586v-3.32
			c0-0.44-0.059-0.734-0.177-0.882c-0.117-0.148-0.351-0.222-0.701-0.222c-0.06,0-0.13,0.002-0.21,0.007
			c-0.074,0-0.112-0.063-0.112-0.191c0-0.157,0.04-0.235,0.12-0.235c0.58,0,1.34-0.113,2.28-0.338c0.09,0,0.135,0.062,0.135,0.188
			v4.785c0,0.345,0.049,0.576,0.146,0.693c0.098,0.118,0.326,0.201,0.686,0.252C346.408,61.36,346.448,61.427,346.448,61.559z"/>
		<path fill="#8C614A" d="M352.943,56.095c0,0.2-0.062,0.37-0.184,0.51c-0.123,0.141-0.271,0.211-0.446,0.211
			c-0.221,0-0.438-0.073-0.652-0.218c-0.17-0.115-0.318-0.173-0.442-0.173c-0.325,0-0.66,0.19-1.006,0.57v3.375
			c0,0.435,0.075,0.738,0.226,0.911c0.149,0.173,0.47,0.291,0.96,0.356c0.08,0.01,0.12,0.077,0.12,0.202c0,0.14-0.04,0.21-0.12,0.21
			c-0.205,0-0.495-0.015-0.87-0.045c-0.414-0.03-0.742-0.045-0.986-0.045c-0.249,0-0.55,0.015-0.903,0.045
			c-0.32,0.03-0.583,0.045-0.788,0.045c-0.08,0-0.12-0.07-0.12-0.21c0-0.125,0.04-0.192,0.12-0.202
			c0.436-0.055,0.714-0.157,0.837-0.308c0.122-0.149,0.184-0.469,0.184-0.958v-2.771c0-0.399-0.052-0.661-0.154-0.786
			s-0.331-0.207-0.686-0.247c-0.08,0-0.12-0.066-0.12-0.199c0-0.122,0.04-0.184,0.12-0.184c0.494-0.125,0.902-0.264,1.224-0.416
			c0.32-0.152,0.531-0.283,0.631-0.394c0.06-0.06,0.119-0.09,0.179-0.09c0.14,0,0.209,0.04,0.209,0.12l-0.061,0.944
			c0.4-0.369,0.744-0.63,1.031-0.779c0.288-0.15,0.574-0.226,0.859-0.226c0.229,0,0.428,0.075,0.592,0.226
			C352.86,55.72,352.943,55.896,352.943,56.095z"/>
		<path fill="#8C614A" d="M359.019,56.08c0,0.27-0.064,0.405-0.194,0.405l-2.235-0.061v3.601c0,0.939,0.335,1.409,1.005,1.409
			c0.415,0,0.792-0.097,1.133-0.292c0.04,0,0.076,0.026,0.108,0.079c0.032,0.052,0.049,0.108,0.049,0.168
			c0,0.125-0.186,0.294-0.558,0.507c-0.372,0.212-0.79,0.318-1.254,0.318c-0.568,0-1.022-0.174-1.362-0.521
			c-0.339-0.347-0.509-0.806-0.509-1.376V60.25l0.03-3.646c0-0.14-0.061-0.21-0.181-0.21h-0.569c-0.11,0-0.165-0.063-0.165-0.191
			c0-0.098,0.045-0.172,0.135-0.221c0.692-0.411,1.296-0.991,1.809-1.739c0.055-0.08,0.125-0.121,0.21-0.121
			c0.14,0,0.209,0.04,0.209,0.12l-0.06,1.433h2.205C358.954,55.675,359.019,55.81,359.019,56.08z"/>
		<path fill="#8C614A" d="M372.668,61.552c0,0.106-0.04,0.165-0.12,0.176c-0.285,0.035-0.615,0.104-0.992,0.21
			c-0.376,0.104-0.67,0.21-0.881,0.315c-0.11,0.055-0.191,0.082-0.241,0.082c-0.08,0-0.121-0.04-0.121-0.12l0.061-0.81
			c-0.53,0.58-1.205,0.87-2.025,0.87c-0.865,0-1.601-0.333-2.208-0.998c-0.608-0.665-0.912-1.462-0.912-2.393
			c0-1.055,0.337-1.908,1.009-2.562c0.673-0.652,1.517-0.979,2.531-0.979c0.58,0,1.115,0.181,1.605,0.54v-2.492
			c0-0.404-0.05-0.668-0.15-0.793c-0.1-0.125-0.33-0.207-0.689-0.247c-0.08-0.011-0.12-0.074-0.12-0.191
			c0-0.133,0.04-0.198,0.12-0.198c0.472-0.11,0.88-0.243,1.227-0.397c0.346-0.155,0.579-0.293,0.699-0.413
			c0.051-0.05,0.104-0.075,0.158-0.075c0.141,0,0.211,0.04,0.211,0.12c-0.08,1.089-0.12,1.959-0.12,2.608v6.603
			c0,0.345,0.05,0.576,0.15,0.693c0.1,0.117,0.329,0.201,0.689,0.251C372.628,61.353,372.668,61.419,372.668,61.552z
			 M370.373,60.751v-3.846c0-0.26-0.151-0.505-0.454-0.735c-0.303-0.229-0.631-0.345-0.986-0.345c-1.46,0-2.189,1.026-2.189,3.079
			c0,0.811,0.175,1.484,0.524,2.02c0.351,0.536,0.811,0.804,1.38,0.804c0.325,0,0.62-0.074,0.886-0.222
			C369.798,61.358,370.078,61.106,370.373,60.751z"/>
		<path fill="#8C614A" d="M379.973,57.79c0,0.14-0.09,0.21-0.27,0.21h-4.11c-0.03,0.27-0.045,0.55-0.045,0.84
			c0,0.806,0.191,1.424,0.573,1.856c0.383,0.433,0.927,0.648,1.632,0.648c0.354,0,0.712-0.095,1.072-0.285
			c0.36-0.189,0.65-0.432,0.87-0.728l0.037-0.015c0.045,0,0.089,0.027,0.132,0.083c0.042,0.055,0.063,0.119,0.063,0.194
			c0,0.105-0.16,0.324-0.479,0.656c-0.32,0.333-0.668,0.587-1.043,0.762s-0.768,0.263-1.178,0.263c-0.899,0-1.657-0.33-2.272-0.99
			s-0.922-1.47-0.922-2.431c0-0.979,0.301-1.81,0.903-2.489c0.603-0.681,1.366-1.021,2.291-1.021c0.775,0,1.427,0.254,1.954,0.762
			C379.709,56.613,379.973,57.175,379.973,57.79z M378.607,57.13c0-0.375-0.128-0.687-0.386-0.934
			c-0.258-0.248-0.589-0.371-0.994-0.371c-0.385,0-0.719,0.161-1.001,0.483s-0.474,0.746-0.574,1.271l2.086-0.061
			c0.314-0.005,0.538-0.034,0.671-0.09C378.541,57.375,378.607,57.275,378.607,57.13z"/>
		<path fill="#8C614A" d="M386.528,60.115c0,0.609-0.239,1.122-0.719,1.537s-1.059,0.623-1.737,0.623
			c-0.239,0-0.609-0.053-1.108-0.158c-0.374-0.075-0.629-0.112-0.764-0.112c-0.04-0.35-0.132-0.883-0.277-1.598
			c0-0.075,0.073-0.112,0.218-0.112c0.12,0,0.192,0.04,0.218,0.12c0.115,0.37,0.343,0.692,0.683,0.968
			c0.34,0.274,0.689,0.412,1.05,0.412c0.375,0,0.666-0.103,0.874-0.308c0.207-0.205,0.311-0.492,0.311-0.862
			c0-0.235-0.086-0.442-0.259-0.622c-0.172-0.181-0.546-0.403-1.121-0.668c-0.755-0.345-1.254-0.67-1.496-0.975
			c-0.242-0.306-0.363-0.67-0.363-1.096c0-0.524,0.228-0.976,0.683-1.354c0.454-0.377,0.992-0.566,1.612-0.566
			c0.26,0,0.625,0.045,1.095,0.135c0.26,0.051,0.43,0.075,0.51,0.075c0.016,0.59,0.048,1.093,0.098,1.508
			c0,0.075-0.072,0.112-0.218,0.112c-0.125,0-0.194-0.04-0.21-0.12c-0.055-0.364-0.191-0.661-0.411-0.889
			c-0.219-0.228-0.48-0.341-0.785-0.341c-0.777,0-1.166,0.34-1.166,1.02c0,0.23,0.092,0.442,0.276,0.638s0.585,0.447,1.202,0.758
			c0.736,0.37,1.222,0.689,1.456,0.96C386.411,59.47,386.528,59.775,386.528,60.115z"/>
		<path fill="#8C614A" d="M391.748,61.84c0,0.14-0.04,0.21-0.12,0.21c-0.205,0-0.468-0.015-0.788-0.045
			c-0.358-0.03-0.659-0.045-0.903-0.045c-0.249,0-0.547,0.015-0.896,0.045c-0.314,0.03-0.575,0.045-0.779,0.045
			c-0.08,0-0.12-0.07-0.12-0.21c0-0.125,0.04-0.192,0.12-0.202c0.425-0.055,0.698-0.157,0.821-0.308
			c0.122-0.149,0.184-0.469,0.184-0.958v-2.771c0-0.399-0.052-0.661-0.154-0.786s-0.326-0.207-0.671-0.247
			c-0.08,0-0.12-0.066-0.12-0.199c0-0.122,0.04-0.184,0.12-0.184c0.522-0.135,0.951-0.278,1.285-0.431s0.544-0.279,0.628-0.379
			c0.05-0.06,0.105-0.09,0.165-0.09c0.14,0,0.209,0.04,0.209,0.12c-0.08,1.12-0.12,1.99-0.12,2.609v2.355
			c0,0.49,0.062,0.81,0.185,0.96c0.122,0.149,0.4,0.252,0.836,0.308C391.708,61.647,391.748,61.715,391.748,61.84z M390.698,52.772
			c0,0.21-0.077,0.393-0.229,0.548c-0.152,0.154-0.336,0.232-0.551,0.232s-0.399-0.078-0.552-0.232
			c-0.152-0.155-0.229-0.338-0.229-0.548c0-0.22,0.075-0.405,0.226-0.555c0.149-0.15,0.334-0.226,0.555-0.226
			c0.215,0,0.398,0.075,0.551,0.226C390.621,52.367,390.698,52.553,390.698,52.772z"/>
		<path fill="#8C614A" d="M399.878,56.455c0,0.27-0.065,0.405-0.195,0.405l-0.952-0.03c0.11,0.285,0.165,0.575,0.165,0.87
			c0,0.72-0.263,1.319-0.788,1.8c-0.526,0.479-1.17,0.72-1.933,0.72h-0.299c-0.398,0-0.715,0.053-0.949,0.158
			c-0.234,0.104-0.352,0.228-0.352,0.367c0,0.175,0.098,0.318,0.292,0.431c0.194,0.113,0.466,0.172,0.815,0.177l1.734,0.022
			c0.748,0.015,1.33,0.173,1.746,0.473c0.417,0.3,0.625,0.717,0.625,1.252c0,0.811-0.439,1.518-1.318,2.123
			c-0.88,0.604-1.921,0.907-3.125,0.907c-0.789,0-1.453-0.192-1.992-0.576c-0.54-0.385-0.81-0.852-0.81-1.401
			c0-0.369,0.171-0.729,0.514-1.082c0.343-0.352,0.746-0.61,1.211-0.774c-0.31-0.141-0.562-0.34-0.757-0.598
			c-0.195-0.259-0.293-0.516-0.293-0.771c0-0.181,0.184-0.374,0.552-0.579c0.367-0.206,0.748-0.344,1.144-0.414
			c-0.43-0.21-0.765-0.489-1.005-0.84c-0.24-0.35-0.36-0.739-0.36-1.17c0-0.689,0.266-1.292,0.798-1.808
			c0.532-0.515,1.165-0.772,1.899-0.772c0.39,0,0.772,0.067,1.149,0.203c0.377,0.135,0.688,0.317,0.933,0.547l1.356-0.045
			C399.813,56.05,399.878,56.185,399.878,56.455z M398.851,63.66c0-0.345-0.114-0.592-0.342-0.741s-0.608-0.229-1.144-0.239
			l-1.739-0.037c-0.346,0-0.65-0.051-0.915-0.151c-0.61,0.335-0.915,0.773-0.915,1.317c0,0.494,0.207,0.895,0.622,1.201
			s0.942,0.46,1.583,0.46c0.77,0,1.437-0.175,2.002-0.523S398.851,64.168,398.851,63.66z M397.493,57.685
			c0-0.64-0.099-1.109-0.296-1.409c-0.196-0.301-0.512-0.45-0.945-0.45c-0.828,0-1.241,0.7-1.241,2.1
			c0,0.635,0.096,1.097,0.287,1.384c0.192,0.288,0.51,0.432,0.954,0.432C397.079,59.74,397.493,59.055,397.493,57.685z"/>
		<path fill="#8C614A" d="M408.668,61.84c0,0.14-0.04,0.21-0.12,0.21c-0.2,0-0.445-0.015-0.734-0.045
			c-0.32-0.03-0.602-0.045-0.846-0.045c-0.25,0-0.536,0.015-0.86,0.045c-0.294,0.03-0.54,0.045-0.739,0.045
			c-0.08,0-0.12-0.07-0.12-0.21c0-0.125,0.04-0.192,0.12-0.202c0.345-0.04,0.571-0.138,0.679-0.293
			c0.107-0.154,0.161-0.479,0.161-0.975v-2.505c0-0.561-0.11-0.971-0.33-1.23s-0.56-0.39-1.02-0.39c-0.29,0-0.547,0.055-0.77,0.165
			c-0.222,0.109-0.461,0.305-0.716,0.585v3.375c0,0.495,0.054,0.82,0.161,0.975c0.107,0.155,0.334,0.253,0.679,0.293
			c0.08,0.01,0.12,0.077,0.12,0.202c0,0.14-0.04,0.21-0.12,0.21c-0.205,0-0.455-0.015-0.75-0.045
			c-0.325-0.03-0.61-0.045-0.854-0.045c-0.24,0-0.521,0.015-0.84,0.045c-0.296,0.03-0.546,0.045-0.75,0.045
			c-0.08,0-0.12-0.07-0.12-0.21c0-0.125,0.04-0.192,0.12-0.202c0.43-0.055,0.707-0.158,0.832-0.311s0.188-0.471,0.188-0.955v-2.771
			c0-0.399-0.052-0.661-0.153-0.786c-0.103-0.125-0.332-0.207-0.687-0.247c-0.08,0-0.12-0.066-0.12-0.199
			c0-0.122,0.04-0.184,0.12-0.184c0.495-0.125,0.907-0.266,1.237-0.424c0.33-0.157,0.537-0.286,0.622-0.386
			c0.051-0.06,0.105-0.09,0.165-0.09c0.141,0,0.21,0.04,0.21,0.12l-0.06,0.944c0.719-0.67,1.388-1.005,2.007-1.005
			c0.679,0,1.209,0.195,1.591,0.585c0.382,0.391,0.572,0.915,0.572,1.575v2.865c0,0.49,0.062,0.81,0.184,0.96
			c0.123,0.149,0.396,0.252,0.821,0.308C408.628,61.647,408.668,61.715,408.668,61.84z"/>
		<path fill="#8C614A" d="M419.258,60.115c0,0.609-0.239,1.122-0.719,1.537s-1.059,0.623-1.737,0.623
			c-0.239,0-0.609-0.053-1.108-0.158c-0.374-0.075-0.629-0.112-0.764-0.112c-0.04-0.35-0.132-0.883-0.277-1.598
			c0-0.075,0.073-0.112,0.218-0.112c0.12,0,0.192,0.04,0.218,0.12c0.115,0.37,0.343,0.692,0.683,0.968
			c0.34,0.274,0.689,0.412,1.05,0.412c0.375,0,0.666-0.103,0.874-0.308c0.207-0.205,0.311-0.492,0.311-0.862
			c0-0.235-0.086-0.442-0.259-0.622c-0.172-0.181-0.546-0.403-1.121-0.668c-0.755-0.345-1.254-0.67-1.496-0.975
			c-0.242-0.306-0.363-0.67-0.363-1.096c0-0.524,0.228-0.976,0.683-1.354c0.454-0.377,0.992-0.566,1.612-0.566
			c0.26,0,0.625,0.045,1.095,0.135c0.26,0.051,0.43,0.075,0.51,0.075c0.016,0.59,0.048,1.093,0.098,1.508
			c0,0.075-0.072,0.112-0.218,0.112c-0.125,0-0.194-0.04-0.21-0.12c-0.055-0.364-0.191-0.661-0.411-0.889
			c-0.219-0.228-0.48-0.341-0.785-0.341c-0.777,0-1.166,0.34-1.166,1.02c0,0.23,0.092,0.442,0.276,0.638s0.585,0.447,1.202,0.758
			c0.736,0.37,1.222,0.689,1.456,0.96C419.141,59.47,419.258,59.775,419.258,60.115z"/>
		<path fill="#8C614A" d="M428.67,61.84c0,0.14-0.04,0.21-0.12,0.21c-0.2,0-0.457-0.015-0.772-0.045
			c-0.345-0.03-0.64-0.045-0.885-0.045s-0.553,0.015-0.923,0.045c-0.345,0.03-0.617,0.045-0.817,0.045c-0.08,0-0.12-0.07-0.12-0.21
			c0-0.125,0.04-0.192,0.12-0.202c0.13-0.016,0.223-0.04,0.277-0.075s0.083-0.103,0.083-0.202c0-0.15-0.24-0.48-0.721-0.99
			l-1.199-1.335c-0.101-0.101-0.235-0.15-0.405-0.15v1.485c0,0.439,0.054,0.752,0.161,0.938c0.107,0.185,0.309,0.295,0.604,0.33
			c0.08,0.01,0.12,0.077,0.12,0.202c0,0.14-0.04,0.21-0.12,0.21c-0.215,0-0.495-0.015-0.84-0.045
			c-0.328-0.03-0.586-0.045-0.775-0.045c-0.214,0-0.473,0.015-0.777,0.045c-0.29,0.03-0.53,0.045-0.72,0.045
			c-0.08,0-0.12-0.07-0.12-0.21c0-0.125,0.04-0.192,0.12-0.202c0.42-0.045,0.692-0.144,0.817-0.296s0.188-0.477,0.188-0.971v-6.962
			c0-0.404-0.049-0.669-0.146-0.794s-0.323-0.208-0.679-0.248c-0.08-0.01-0.12-0.073-0.12-0.19c0-0.133,0.04-0.199,0.12-0.199
			c0.854-0.2,1.484-0.465,1.893-0.795c0.074-0.061,0.137-0.09,0.187-0.09c0.139,0,0.209,0.04,0.209,0.12
			c-0.08,0.82-0.12,1.691-0.12,2.612v4.647c0.18,0,0.322-0.048,0.428-0.143l1.117-1.061c0.035-0.035,0.093-0.088,0.173-0.158
			c0.414-0.379,0.622-0.659,0.622-0.841c0-0.132-0.2-0.223-0.6-0.273c-0.08-0.01-0.12-0.078-0.12-0.206
			c0-0.138,0.04-0.206,0.12-0.206c0.21,0,0.475,0.015,0.795,0.045c0.295,0.03,0.54,0.045,0.734,0.045
			c0.146,0,0.333-0.013,0.562-0.037c0.28-0.035,0.53-0.053,0.75-0.053c0.08,0,0.12,0.068,0.12,0.206c0,0.128-0.04,0.196-0.12,0.206
			c-0.365,0.041-0.684,0.127-0.956,0.258c-0.272,0.132-0.642,0.404-1.106,0.818l-1.29,1.144l1.965,2.153
			c0.415,0.455,0.766,0.768,1.051,0.938s0.657,0.28,1.117,0.33C428.63,61.647,428.67,61.715,428.67,61.84z"/>
		<path fill="#8C614A" d="M433.417,61.84c0,0.14-0.04,0.21-0.12,0.21c-0.205,0-0.468-0.015-0.788-0.045
			c-0.358-0.03-0.659-0.045-0.903-0.045c-0.249,0-0.547,0.015-0.896,0.045c-0.314,0.03-0.575,0.045-0.779,0.045
			c-0.08,0-0.12-0.07-0.12-0.21c0-0.125,0.04-0.192,0.12-0.202c0.425-0.055,0.698-0.157,0.821-0.308
			c0.122-0.149,0.184-0.469,0.184-0.958v-2.771c0-0.399-0.052-0.661-0.154-0.786s-0.326-0.207-0.671-0.247
			c-0.08,0-0.12-0.066-0.12-0.199c0-0.122,0.04-0.184,0.12-0.184c0.522-0.135,0.951-0.278,1.285-0.431s0.544-0.279,0.628-0.379
			c0.05-0.06,0.105-0.09,0.165-0.09c0.14,0,0.209,0.04,0.209,0.12c-0.08,1.12-0.12,1.99-0.12,2.609v2.355
			c0,0.49,0.062,0.81,0.185,0.96c0.122,0.149,0.4,0.252,0.836,0.308C433.377,61.647,433.417,61.715,433.417,61.84z M432.367,52.772
			c0,0.21-0.077,0.393-0.229,0.548c-0.152,0.154-0.336,0.232-0.551,0.232s-0.399-0.078-0.552-0.232
			c-0.152-0.155-0.229-0.338-0.229-0.548c0-0.22,0.075-0.405,0.226-0.555c0.149-0.15,0.334-0.226,0.555-0.226
			c0.215,0,0.398,0.075,0.551,0.226C432.29,52.367,432.367,52.553,432.367,52.772z"/>
		<path fill="#8C614A" d="M438.202,61.825c0,0.14-0.04,0.21-0.12,0.21c-0.205,0-0.468-0.013-0.787-0.038
			c-0.36-0.024-0.663-0.037-0.908-0.037c-0.24,0-0.537,0.013-0.893,0.037c-0.319,0.025-0.582,0.038-0.787,0.038
			c-0.08,0-0.12-0.07-0.12-0.21c0-0.125,0.04-0.192,0.12-0.203c0.425-0.05,0.701-0.15,0.829-0.303
			c0.127-0.152,0.19-0.474,0.19-0.963v-6.962c0-0.405-0.05-0.67-0.149-0.795c-0.101-0.125-0.33-0.207-0.69-0.247
			c-0.08-0.011-0.12-0.074-0.12-0.191c0-0.122,0.04-0.184,0.12-0.184c0.525-0.135,0.955-0.278,1.29-0.432
			c0.335-0.152,0.545-0.281,0.63-0.386c0.05-0.055,0.105-0.083,0.165-0.083c0.141,0,0.21,0.04,0.21,0.12
			c-0.08,1.12-0.12,1.99-0.12,2.61v6.547c0,0.49,0.062,0.812,0.188,0.964c0.125,0.153,0.403,0.254,0.833,0.304
			C438.162,61.633,438.202,61.7,438.202,61.825z"/>
		<path fill="#8C614A" d="M442.987,61.825c0,0.14-0.04,0.21-0.12,0.21c-0.205,0-0.468-0.013-0.787-0.038
			c-0.36-0.024-0.663-0.037-0.908-0.037c-0.24,0-0.537,0.013-0.893,0.037c-0.319,0.025-0.582,0.038-0.787,0.038
			c-0.08,0-0.12-0.07-0.12-0.21c0-0.125,0.04-0.192,0.12-0.203c0.425-0.05,0.701-0.15,0.829-0.303
			c0.127-0.152,0.19-0.474,0.19-0.963v-6.962c0-0.405-0.05-0.67-0.149-0.795c-0.101-0.125-0.33-0.207-0.69-0.247
			c-0.08-0.011-0.12-0.074-0.12-0.191c0-0.122,0.04-0.184,0.12-0.184c0.525-0.135,0.955-0.278,1.29-0.432
			c0.335-0.152,0.545-0.281,0.63-0.386c0.05-0.055,0.105-0.083,0.165-0.083c0.141,0,0.21,0.04,0.21,0.12
			c-0.08,1.12-0.12,1.99-0.12,2.61v6.547c0,0.49,0.062,0.812,0.188,0.964c0.125,0.153,0.403,0.254,0.833,0.304
			C442.947,61.633,442.987,61.7,442.987,61.825z"/>
		<path fill="#8C614A" d="M449.047,60.115c0,0.609-0.239,1.122-0.719,1.537s-1.059,0.623-1.737,0.623
			c-0.239,0-0.609-0.053-1.108-0.158c-0.374-0.075-0.629-0.112-0.764-0.112c-0.04-0.35-0.132-0.883-0.277-1.598
			c0-0.075,0.073-0.112,0.218-0.112c0.12,0,0.192,0.04,0.218,0.12c0.115,0.37,0.343,0.692,0.683,0.968
			c0.34,0.274,0.689,0.412,1.05,0.412c0.375,0,0.666-0.103,0.874-0.308c0.207-0.205,0.311-0.492,0.311-0.862
			c0-0.235-0.086-0.442-0.259-0.622c-0.172-0.181-0.546-0.403-1.121-0.668c-0.755-0.345-1.254-0.67-1.496-0.975
			c-0.242-0.306-0.363-0.67-0.363-1.096c0-0.524,0.228-0.976,0.683-1.354c0.454-0.377,0.992-0.566,1.612-0.566
			c0.26,0,0.625,0.045,1.095,0.135c0.26,0.051,0.43,0.075,0.51,0.075c0.016,0.59,0.048,1.093,0.098,1.508
			c0,0.075-0.072,0.112-0.218,0.112c-0.125,0-0.194-0.04-0.21-0.12c-0.055-0.364-0.191-0.661-0.411-0.889
			c-0.219-0.228-0.48-0.341-0.785-0.341c-0.777,0-1.166,0.34-1.166,1.02c0,0.23,0.092,0.442,0.276,0.638s0.585,0.447,1.202,0.758
			c0.736,0.37,1.222,0.689,1.456,0.96C448.93,59.47,449.047,59.775,449.047,60.115z"/>
		<path fill="#8C614A" d="M453.007,61.33c0,0.24-0.086,0.447-0.256,0.622s-0.375,0.263-0.614,0.263c-0.24,0-0.448-0.088-0.623-0.263
			s-0.263-0.382-0.263-0.622s0.088-0.445,0.263-0.615s0.383-0.255,0.623-0.255c0.239,0,0.444,0.085,0.614,0.255
			S453.007,61.09,453.007,61.33z"/>
	</g>
</g>
<g>
</g>
<g>
</g>
<g>
</g>
<g>
</g>
<g>
</g>
<g>
</g>
</svg>
